<svg width="603" height="169" viewBox="0 0 603 169" fill="none" xmlns="http://www.w3.org/2000/svg">
<path d="M520.24 168.059C519.82 168.059 519.306 167.802 518.699 167.287C518.092 166.773 517.484 166.165 516.877 165.463C516.27 164.762 515.78 164.037 515.406 163.288C515.033 162.54 514.846 161.932 514.846 161.464C514.846 160.997 515.103 160.482 515.616 159.921C516.177 159.313 516.854 158.752 517.648 158.237C518.442 157.676 519.212 157.232 519.96 156.904C520.754 156.53 521.361 156.343 521.781 156.343C522.248 156.343 522.762 156.6 523.322 157.115C523.929 157.629 524.49 158.261 525.003 159.009C525.564 159.757 526.031 160.506 526.404 161.254C526.778 162.002 526.965 162.61 526.965 163.078C526.965 163.499 526.708 163.99 526.194 164.551C525.727 165.112 525.12 165.674 524.373 166.235C523.626 166.749 522.878 167.194 522.131 167.568C521.384 167.895 520.754 168.059 520.24 168.059Z" fill="white"/>
<path d="M548.378 167.638C547.257 167.638 545.926 167.381 544.385 166.866C542.844 166.352 541.326 165.744 539.832 165.042C538.384 164.294 537.17 163.569 536.189 162.867C535.208 162.119 534.718 161.534 534.718 161.114V119.372C534.718 118.951 534.625 118.577 534.438 118.25C534.298 117.922 534.018 117.688 533.597 117.548L528.343 115.864C528.437 115.303 528.554 114.812 528.694 114.391C528.88 113.97 529.044 113.666 529.184 113.479C529.698 113.245 530.492 112.965 531.566 112.637C532.64 112.31 533.761 112.053 534.928 111.866C536.096 111.632 537.076 111.515 537.87 111.515C539.412 111.515 540.696 112.053 541.723 113.129C542.751 114.157 543.264 115.467 543.264 117.057V137.402C543.872 136.981 544.525 136.49 545.226 135.928C545.973 135.367 546.744 134.829 547.538 134.315C548.378 133.8 549.195 133.38 549.989 133.052C550.83 132.725 551.601 132.561 552.301 132.561C553.095 132.561 554.006 132.725 555.033 133.052C556.107 133.333 557.158 133.73 558.185 134.245C559.26 134.712 560.217 135.227 561.058 135.788C561.945 136.349 562.599 136.864 563.019 137.331C563.439 137.986 563.766 138.922 564 140.138C564.233 141.354 564.397 142.663 564.49 144.066C564.583 145.469 564.63 146.779 564.63 147.995C564.63 150.474 564.467 152.906 564.14 155.291C563.813 157.676 563.416 159.594 562.949 161.043C562.435 161.605 561.641 162.259 560.567 163.008C559.54 163.709 558.349 164.434 556.995 165.182C555.64 165.884 554.216 166.469 552.721 166.936C551.227 167.404 549.779 167.638 548.378 167.638ZM549.149 161.815C549.756 161.815 550.48 161.722 551.32 161.534C552.208 161.347 553.025 161.137 553.772 160.903C554.566 160.669 555.103 160.459 555.383 160.272C555.617 159.664 555.78 158.635 555.874 157.185C556.014 155.735 556.084 154.285 556.084 152.835C556.084 151.245 556.037 149.725 555.944 148.275C555.897 146.779 555.804 145.493 555.664 144.417C555.57 143.295 555.43 142.476 555.243 141.962C555.103 141.634 554.683 141.237 553.982 140.769C553.328 140.301 552.605 139.88 551.811 139.506C551.063 139.132 550.433 138.945 549.919 138.945C549.546 138.945 548.939 139.062 548.098 139.296C547.304 139.483 546.44 139.74 545.506 140.067C544.619 140.395 543.872 140.699 543.264 140.979V159.219C543.825 159.547 544.479 159.921 545.226 160.342C545.973 160.763 546.697 161.114 547.397 161.394C548.145 161.675 548.728 161.815 549.149 161.815Z" fill="white"/>
<path d="M579.673 167.848C578.785 167.848 577.711 167.568 576.45 167.006C575.236 166.398 574.115 165.72 573.088 164.972C572.107 164.177 571.453 163.546 571.126 163.078C570.846 162.517 570.589 161.698 570.356 160.622C570.169 159.5 570.076 158.284 570.076 156.975C570.076 156.413 570.099 155.875 570.146 155.361C570.192 154.8 570.262 154.285 570.356 153.818C570.496 153.537 570.823 153.139 571.337 152.625C571.85 152.111 572.457 151.596 573.158 151.082C573.858 150.52 574.536 150.053 575.189 149.679C575.89 149.258 576.45 149 576.871 148.907C577.291 148.767 577.968 148.673 578.902 148.626C579.883 148.579 580.934 148.533 582.055 148.486C582.662 148.439 583.199 148.392 583.666 148.346C584.133 148.299 584.6 148.275 585.067 148.275C585.534 148.229 586.071 148.159 586.678 148.065C587.332 147.971 588.149 147.878 589.13 147.784V140.138C588.196 139.576 587.028 139.132 585.627 138.805C584.273 138.477 582.989 138.314 581.774 138.314C581.447 138.314 581.12 138.337 580.794 138.384C580.513 138.384 580.257 138.407 580.023 138.454L577.711 144.136C577.478 144.277 577.057 144.44 576.45 144.627C575.89 144.815 575.189 144.931 574.349 144.978C573.882 144.37 573.321 143.435 572.668 142.172C572.014 140.909 571.57 139.53 571.337 138.033C572.317 137.144 573.438 136.373 574.699 135.718C576.007 135.016 577.361 134.432 578.762 133.964C580.21 133.496 581.611 133.146 582.965 132.912C584.366 132.678 585.627 132.561 586.748 132.561C587.682 132.561 588.756 132.818 589.97 133.333C591.231 133.847 592.445 134.502 593.613 135.297C594.781 136.092 595.738 136.911 596.485 137.752C597.279 138.547 597.676 139.249 597.676 139.857V162.236L602.37 162.797C602.463 162.938 602.58 163.218 602.72 163.639C602.907 164.06 603 164.528 603 165.042C602.673 165.51 602.113 165.954 601.319 166.375C600.572 166.749 599.778 167.053 598.937 167.287C598.096 167.521 597.372 167.638 596.765 167.638C595.691 167.638 594.711 167.427 593.823 167.006C592.983 166.586 592.259 166.048 591.652 165.393C591.044 164.738 590.554 164.083 590.181 163.429C589.293 164.037 588.196 164.691 586.888 165.393C585.58 166.048 584.273 166.632 582.965 167.147C581.658 167.614 580.56 167.848 579.673 167.848ZM582.615 161.815C583.035 161.815 583.642 161.722 584.436 161.534C585.277 161.301 586.117 161.043 586.958 160.763C587.845 160.435 588.569 160.131 589.13 159.851V151.503C588.383 151.783 587.565 151.994 586.678 152.134C585.837 152.274 584.973 152.391 584.086 152.485C582.872 152.672 581.728 152.859 580.654 153.046C579.626 153.233 578.832 153.584 578.272 154.098C578.272 154.8 578.295 155.712 578.342 156.834C578.435 157.91 578.599 158.845 578.832 159.64C579.066 160.014 579.556 160.482 580.303 161.043C581.097 161.558 581.868 161.815 582.615 161.815Z" fill="white"/>
<path d="M60.1045 168.369C56.742 168.369 52.749 167.597 48.1256 166.054C43.5022 164.51 38.9488 162.686 34.4655 160.582C30.1223 158.337 26.4796 156.162 23.5374 154.057C20.5952 151.812 19.1241 150.059 19.1241 148.796V23.5716C19.1241 22.3088 18.8439 21.1864 18.2835 20.2042C17.8632 19.2221 17.0226 18.5205 15.7617 18.0996L0 13.0486C0.280207 11.3649 0.630466 9.89165 1.05078 8.62888C1.61119 7.36612 2.10155 6.45413 2.52187 5.8929C4.06301 5.19137 6.44477 4.34952 9.66715 3.36737C12.8895 2.38522 16.252 1.61353 19.7546 1.0523C23.2572 0.350768 26.1994 0 28.5811 0C33.2046 0 37.0574 1.61353 40.1397 4.8406C43.222 7.92735 44.7631 11.856 44.7631 16.6264V77.66C46.5845 76.3973 48.5459 74.924 50.6475 73.2403C52.8891 71.5567 55.2008 69.9431 57.5826 68.3997C60.1045 66.8564 62.5563 65.5936 64.938 64.6115C67.4599 63.6293 69.7716 63.1382 71.8732 63.1382C74.2549 63.1382 76.987 63.6293 80.0692 64.6115C83.2916 65.4533 86.4439 66.6459 89.5262 68.1893C92.7486 69.5924 95.6207 71.1357 98.1426 72.8194C100.805 74.5031 102.766 76.0465 104.027 77.4496C105.288 79.4139 106.269 82.22 106.969 85.868C107.67 89.516 108.16 93.4446 108.44 97.6538C108.72 101.863 108.861 105.792 108.861 109.44C108.861 116.876 108.37 124.172 107.389 131.328C106.409 138.483 105.218 144.236 103.817 148.585C102.276 150.269 99.8939 152.233 96.6715 154.478C93.5892 156.583 90.0166 158.758 85.9536 161.002C81.8906 163.107 77.6174 164.861 73.1341 166.264C68.6508 167.667 64.3076 168.369 60.1045 168.369ZM62.4162 150.9C64.2375 150.9 66.4091 150.62 68.931 150.059C71.593 149.497 74.0448 148.866 76.2864 148.164C78.6682 147.463 80.2794 146.831 81.12 146.27C81.8205 144.446 82.3109 141.359 82.5911 137.01C83.0114 132.66 83.2216 128.311 83.2216 123.961C83.2216 119.191 83.0815 114.631 82.8013 110.281C82.6611 105.792 82.3809 101.933 81.9606 98.7061C81.6804 95.3387 81.2601 92.8833 80.6997 91.34C80.2794 90.3578 79.0184 89.1652 76.9169 87.7621C74.9554 86.3591 72.7838 85.0963 70.4021 83.9738C68.1604 82.8514 66.269 82.2902 64.7279 82.2902C63.607 82.2902 61.7857 82.6409 59.2638 83.3425C56.8821 83.9037 54.2902 84.6754 51.4881 85.6575C48.8261 86.6397 46.5845 87.5517 44.7631 88.3935V143.113C46.4444 144.095 48.4058 145.218 50.6475 146.481C52.8891 147.743 55.0607 148.796 57.1623 149.638C59.4039 150.479 61.1552 150.9 62.4162 150.9Z" fill="white"/>
<path d="M153.988 169C151.326 169 148.104 168.158 144.321 166.474C140.678 164.65 137.316 162.616 134.234 160.371C131.291 157.986 129.33 156.092 128.349 154.689C127.509 153.005 126.738 150.55 126.037 147.323C125.477 143.955 125.197 140.307 125.197 136.379C125.197 134.695 125.267 133.081 125.407 131.538C125.547 129.854 125.757 128.311 126.037 126.908C126.458 126.066 127.438 124.873 128.98 123.33C130.521 121.787 132.342 120.243 134.444 118.7C136.545 117.016 138.577 115.613 140.538 114.491C142.64 113.228 144.321 112.456 145.582 112.176C146.843 111.755 148.874 111.474 151.676 111.334C154.619 111.193 157.771 111.053 161.133 110.913C162.955 110.773 164.566 110.632 165.967 110.492C167.368 110.352 168.769 110.281 170.17 110.281C171.571 110.141 173.182 109.931 175.004 109.65C176.965 109.369 179.417 109.089 182.359 108.808V85.868C179.557 84.1843 176.054 82.8514 171.851 81.8692C167.788 80.8871 163.935 80.396 160.293 80.396C159.312 80.396 158.331 80.4662 157.351 80.6065C156.51 80.6065 155.739 80.6766 155.039 80.8169L148.104 97.8643C147.403 98.2852 146.142 98.7763 144.321 99.3375C142.64 99.8987 140.538 100.249 138.016 100.39C136.615 98.5658 134.934 95.7596 132.973 91.9714C131.011 88.1831 129.68 84.044 128.98 79.5542C131.922 76.8883 135.284 74.5733 139.067 72.609C142.99 70.5044 147.053 68.7505 151.256 67.3474C155.599 65.9444 159.802 64.8921 163.865 64.1905C168.069 63.489 171.851 63.1382 175.214 63.1382C178.016 63.1382 181.238 63.9099 184.881 65.4533C188.664 66.9967 192.306 68.961 195.809 71.3462C199.312 73.7314 202.184 76.1868 204.425 78.7123C206.807 81.0975 207.998 83.2022 207.998 85.0261V152.163L222.078 153.847C222.359 154.268 222.709 155.11 223.129 156.372C223.69 157.635 223.97 159.038 223.97 160.582C222.989 161.985 221.308 163.318 218.926 164.58C216.684 165.703 214.303 166.615 211.781 167.316C209.259 168.018 207.087 168.369 205.266 168.369C202.044 168.369 199.101 167.737 196.44 166.474C193.918 165.212 191.746 163.598 189.925 161.634C188.103 159.67 186.632 157.705 185.511 155.741C182.849 157.565 179.557 159.529 175.634 161.634C171.711 163.598 167.788 165.352 163.865 166.895C159.943 168.298 156.65 169 153.988 169ZM162.815 150.9C164.076 150.9 165.897 150.62 168.279 150.059C170.801 149.357 173.322 148.585 175.844 147.743C178.506 146.761 180.678 145.849 182.359 145.007V119.963C180.117 120.804 177.666 121.436 175.004 121.857C172.482 122.278 169.89 122.628 167.228 122.909C163.585 123.47 160.153 124.032 156.93 124.593C153.848 125.154 151.466 126.206 149.785 127.75C149.785 129.854 149.855 132.59 149.995 135.958C150.275 139.185 150.766 141.991 151.466 144.376C152.167 145.499 153.638 146.902 155.88 148.585C158.261 150.129 160.573 150.9 162.815 150.9Z" fill="white"/>
<path d="M241.334 168.369C240.353 168.369 238.882 167.457 236.921 165.633C235.099 163.809 233.418 161.634 231.877 159.108C230.336 156.443 229.565 153.847 229.565 151.321C234.049 147.393 238.952 142.622 244.276 137.01C249.6 131.257 254.924 125.154 260.248 118.7C265.572 112.105 270.616 105.651 275.379 99.3375C280.283 92.8834 284.556 87.0606 288.199 81.8692L255.835 79.9751L248.689 99.9689C247.709 100.39 246.238 100.881 244.276 101.442C242.315 101.863 240.213 102.144 237.971 102.284C236.57 99.6181 235.029 96.0403 233.348 91.5504C231.807 87.0606 230.966 82.7111 230.826 78.5019C231.387 77.3794 232.648 75.9763 234.609 74.2926C236.57 72.4687 238.672 70.7148 240.914 69.0311C243.295 67.3474 245.467 65.9444 247.428 64.8219C249.39 63.6995 250.721 63.1382 251.421 63.1382C252.122 63.1382 253.663 63.2785 256.045 63.5591C258.567 63.6995 261.509 63.9099 264.871 64.1905C268.234 64.4711 271.666 64.7518 275.169 65.0324C278.672 65.313 281.754 65.5936 284.416 65.8742C287.218 66.0145 289.249 66.1548 290.51 66.2951C291.631 66.2951 293.382 66.0145 295.764 65.4533C298.146 64.8921 300.388 64.401 302.489 63.9801C304.591 63.4188 305.852 63.2084 306.272 63.3487C308.233 64.3308 310.195 66.4354 312.156 69.6625C314.258 72.7493 315.379 76.0465 315.519 79.5542L264.031 146.481L293.453 150.269L305.221 129.854C307.883 129.995 310.195 130.416 312.156 131.117C314.258 131.819 315.729 132.59 316.57 133.432C316.57 134.274 316.5 135.677 316.359 137.641C316.219 139.465 316.009 141.64 315.729 144.166C315.449 146.551 315.029 149.006 314.468 151.532C313.908 154.057 313.277 156.372 312.577 158.477C311.176 159.88 309.214 161.353 306.692 162.897C304.17 164.44 301.649 165.773 299.127 166.895C296.745 167.878 294.854 168.369 293.453 168.369C291.771 168.369 289.109 168.018 285.467 167.316C281.964 166.474 278.111 165.633 273.908 164.791C269.845 163.809 265.992 162.967 262.35 162.265C258.707 161.564 255.905 161.213 253.943 161.213C251.842 161.213 249.81 161.985 247.849 163.528C246.027 164.931 243.856 166.545 241.334 168.369Z" fill="white"/>
<path d="M357.371 169C354.709 169 351.487 168.158 347.704 166.474C344.061 164.65 340.699 162.616 337.616 160.371C334.674 157.986 332.713 156.092 331.732 154.689C330.891 153.005 330.121 150.55 329.42 147.323C328.86 143.955 328.58 140.307 328.58 136.379C328.58 134.695 328.65 133.081 328.79 131.538C328.93 129.854 329.14 128.311 329.42 126.908C329.841 126.066 330.821 124.873 332.362 123.33C333.904 121.787 335.725 120.243 337.827 118.7C339.928 117.016 341.96 115.613 343.921 114.491C346.023 113.228 347.704 112.456 348.965 112.176C350.226 111.755 352.257 111.474 355.059 111.334C358.001 111.193 361.154 111.053 364.516 110.913C366.338 110.773 367.949 110.632 369.35 110.492C370.751 110.352 372.152 110.281 373.553 110.281C374.954 110.141 376.565 109.931 378.387 109.65C380.348 109.369 382.8 109.089 385.742 108.808V85.868C382.94 84.1843 379.437 82.8514 375.234 81.8692C371.171 80.8871 367.318 80.396 363.676 80.396C362.695 80.396 361.714 80.4662 360.733 80.6065C359.893 80.6065 359.122 80.6766 358.422 80.8169L351.487 97.8643C350.786 98.2852 349.525 98.7763 347.704 99.3375C346.023 99.8987 343.921 100.249 341.399 100.39C339.998 98.5658 338.317 95.7596 336.355 91.9714C334.394 88.1831 333.063 84.044 332.362 79.5542C335.305 76.8883 338.667 74.5733 342.45 72.609C346.373 70.5044 350.436 68.7505 354.639 67.3474C358.982 65.9444 363.185 64.8921 367.248 64.1905C371.451 63.489 375.234 63.1382 378.597 63.1382C381.399 63.1382 384.621 63.9099 388.264 65.4533C392.047 66.9967 395.689 68.961 399.192 71.3462C402.695 73.7314 405.567 76.1868 407.808 78.7123C410.19 81.0975 411.381 83.2022 411.381 85.0261V152.163L425.461 153.847C425.742 154.268 426.092 155.11 426.512 156.372C427.073 157.635 427.353 159.038 427.353 160.582C426.372 161.985 424.691 163.318 422.309 164.58C420.067 165.703 417.686 166.615 415.164 167.316C412.642 168.018 410.47 168.369 408.649 168.369C405.427 168.369 402.484 167.737 399.822 166.474C397.301 165.212 395.129 163.598 393.308 161.634C391.486 159.67 390.015 157.705 388.894 155.741C386.232 157.565 382.94 159.529 379.017 161.634C375.094 163.598 371.171 165.352 367.248 166.895C363.325 168.298 360.033 169 357.371 169ZM366.198 150.9C367.458 150.9 369.28 150.62 371.662 150.059C374.183 149.357 376.705 148.585 379.227 147.743C381.889 146.761 384.061 145.849 385.742 145.007V119.963C383.5 120.804 381.048 121.436 378.387 121.857C375.865 122.278 373.273 122.628 370.611 122.909C366.968 123.47 363.536 124.032 360.313 124.593C357.231 125.154 354.849 126.206 353.168 127.75C353.168 129.854 353.238 132.59 353.378 135.958C353.658 139.185 354.149 141.991 354.849 144.376C355.55 145.499 357.021 146.902 359.262 148.585C361.644 150.129 363.956 150.9 366.198 150.9Z" fill="white"/>
<path d="M474.139 168.369C472.878 168.369 470.426 168.158 466.783 167.737C463.14 167.176 459.077 166.545 454.594 165.843C450.111 165.001 445.908 164.159 441.985 163.318C438.202 162.476 435.47 161.774 433.789 161.213C433.789 160.09 433.999 158.968 434.419 157.846C434.98 156.583 435.47 155.671 435.89 155.11L441.354 154.057C442.895 153.777 444.086 153.215 444.927 152.374C445.908 151.391 446.678 149.778 447.239 147.533C447.799 145.148 448.079 141.71 448.079 137.22V86.7098C448.079 85.3068 447.799 84.1843 447.239 83.3425C446.818 82.3603 445.978 81.6588 444.717 81.2378L432.738 76.3973C433.018 74.7136 433.438 73.2403 433.999 71.9776C434.559 70.5745 435.05 69.5924 435.47 69.0311C437.852 67.9087 441.214 66.6459 445.557 65.2428C449.901 63.8398 453.894 63.1382 457.536 63.1382C462.3 63.1382 466.153 64.8219 469.095 68.1893C472.037 71.4164 473.508 76.0465 473.508 82.0797V83.132C474.489 81.7289 475.75 79.9751 477.291 77.8705C478.972 75.6256 480.723 73.3807 482.545 71.1357C484.506 68.7505 486.468 66.8564 488.429 65.4533C490.391 63.9099 492.282 63.1382 494.103 63.1382C496.065 63.1382 498.026 63.8398 499.988 65.2428C502.089 66.6459 503.981 68.3997 505.662 70.5043C507.483 72.609 508.954 74.6434 510.075 76.6077C511.196 78.572 511.756 80.0452 511.756 81.0274C511.756 82.4305 511.266 84.5351 510.285 87.3412C509.445 90.007 508.324 92.6729 506.923 95.3387C505.662 97.8643 504.541 99.7584 503.56 101.021C501.739 101.021 499.778 100.811 497.676 100.39C495.715 99.8286 494.103 99.3375 492.842 98.9166C492.142 97.2329 491.371 95.4089 490.531 93.4446C489.83 91.34 489.13 89.5861 488.429 88.1831C487.729 86.6397 487.028 85.868 486.328 85.868C485.767 85.868 484.857 86.2889 483.596 87.1308C482.335 87.9726 481.004 88.9548 479.603 90.0772C478.202 91.1997 476.941 92.252 475.82 93.2341C474.699 94.2163 473.998 94.9178 473.718 95.3387V141.43C473.718 144.376 473.368 146.902 472.668 149.006C472.107 151.111 471.547 152.584 470.986 153.426L488.849 155.32C489.13 155.741 489.41 156.513 489.69 157.635C490.11 158.617 490.321 159.74 490.321 161.002C489.48 162.125 488.009 163.247 485.907 164.37C483.946 165.492 481.844 166.474 479.603 167.316C477.501 168.018 475.68 168.369 474.139 168.369Z" fill="white"/>
<path d="M22.0154 118.214L31.425 108.729L40.8346 118.214L31.425 127.699L22.0154 118.214Z" fill="#DBAC24"/>
<path d="M34.3076 105.523H28.1615L31.2627 108.706L34.3076 105.523Z" fill="#852400"/>
<path d="M31.4319 108.649H25.2858L28.387 111.832L31.4319 108.649Z" fill="#852400"/>
<path d="M28.2743 111.832H22.1281L25.2294 115.015L28.2743 111.832Z" fill="#852400"/>
<path d="M25.2294 115.128H19.0833L22.1845 118.311L25.2294 115.128Z" fill="#852400"/>
<path d="M19.0833 121.38H25.2294L22.1281 118.197L19.0833 121.38Z" fill="#852400"/>
<path d="M28.3307 131.043H34.4768L31.3755 127.86L28.3307 131.043Z" fill="#852400"/>
<path d="M31.2627 127.86H37.4089L34.3076 124.677L31.2627 127.86Z" fill="#852400"/>
<path d="M25.3986 127.86H31.5447L28.4434 124.677L25.3986 127.86Z" fill="#852400"/>
<path d="M22.2409 124.677H28.387L25.2858 121.494L22.2409 124.677Z" fill="#852400"/>
<path d="M34.4204 124.677H40.5665L37.4653 121.494L34.4204 124.677Z" fill="#852400"/>
<path d="M37.6908 121.38H43.8369L40.7357 118.197L37.6908 121.38Z" fill="#852400"/>
<path d="M43.6114 115.242H37.4653L40.5665 118.425L43.6114 115.242Z" fill="#852400"/>
<path d="M40.5665 111.832H34.4204L37.5216 115.015L40.5665 111.832Z" fill="#852400"/>
<path d="M37.5216 108.649H31.3755L34.4768 111.832L37.5216 108.649Z" fill="#852400"/>
<path d="M25.9764 118.254L31.3191 112.869L36.6619 118.254L31.3191 123.64L25.9764 118.254Z" fill="#C6635D"/>
<path d="M28.3307 118.443L31.2811 115.469L34.2316 118.443L31.2811 121.417L28.3307 118.443Z" fill="#EBE0C0"/>
<path d="M86.2295 121.137L95.6391 111.652L105.049 121.137L95.6391 130.622L86.2295 121.137Z" fill="#DBAC24"/>
<path d="M98.5218 108.446H92.3757L95.4769 111.629L98.5218 108.446Z" fill="#852400"/>
<path d="M95.6461 111.572H89.5L92.6012 114.755L95.6461 111.572Z" fill="#852400"/>
<path d="M92.4884 114.755H86.3423L89.4436 117.938L92.4884 114.755Z" fill="#852400"/>
<path d="M89.4436 118.051H83.2974L86.3987 121.234L89.4436 118.051Z" fill="#852400"/>
<path d="M83.2974 124.303H89.4436L86.3423 121.12L83.2974 124.303Z" fill="#852400"/>
<path d="M92.5448 133.966H98.6909L95.5897 130.783L92.5448 133.966Z" fill="#852400"/>
<path d="M95.4769 130.783H101.623L98.5218 127.6L95.4769 130.783Z" fill="#852400"/>
<path d="M89.6127 130.783H95.7588L92.6576 127.6L89.6127 130.783Z" fill="#852400"/>
<path d="M86.4551 127.6H92.6012L89.5 124.417L86.4551 127.6Z" fill="#852400"/>
<path d="M98.6345 127.6H104.781L101.679 124.417L98.6345 127.6Z" fill="#852400"/>
<path d="M101.905 124.303H108.051L104.95 121.12L101.905 124.303Z" fill="#852400"/>
<path d="M107.826 118.165H101.679L104.781 121.348L107.826 118.165Z" fill="#852400"/>
<path d="M104.781 114.755H98.6345L101.736 117.938L104.781 114.755Z" fill="#852400"/>
<path d="M101.736 111.572H95.5897L98.6909 114.755L101.736 111.572Z" fill="#852400"/>
<path d="M90.1906 121.177L95.5333 115.792L100.876 121.177L95.5333 126.563L90.1906 121.177Z" fill="#C6635D"/>
<path d="M92.5448 121.366L95.4953 118.392L98.4458 121.366L95.4953 124.34L92.5448 121.366Z" fill="#EBE0C0"/>
<path d="M186.199 119.676L195.609 110.191L205.019 119.676L195.609 129.16L186.199 119.676Z" fill="#DBAC24"/>
<path d="M198.492 106.984H192.345L195.447 110.167L198.492 106.984Z" fill="#852400"/>
<path d="M195.616 110.11H189.47L192.571 113.293L195.616 110.11Z" fill="#852400"/>
<path d="M192.458 113.293H186.312L189.413 116.476L192.458 113.293Z" fill="#852400"/>
<path d="M189.413 116.59H183.267L186.368 119.773L189.413 116.59Z" fill="#852400"/>
<path d="M183.267 122.842H189.413L186.312 119.659L183.267 122.842Z" fill="#852400"/>
<path d="M192.515 132.504H198.661L195.559 129.321L192.515 132.504Z" fill="#852400"/>
<path d="M195.447 129.321H201.593L198.492 126.138L195.447 129.321Z" fill="#852400"/>
<path d="M189.583 129.321H195.729L192.627 126.138L189.583 129.321Z" fill="#852400"/>
<path d="M186.425 126.138H192.571L189.47 122.956L186.425 126.138Z" fill="#852400"/>
<path d="M198.604 126.138H204.75L201.649 122.956L198.604 126.138Z" fill="#852400"/>
<path d="M201.875 122.842H208.021L204.92 119.659L201.875 122.842Z" fill="#852400"/>
<path d="M207.795 116.703H201.649L204.75 119.886L207.795 116.703Z" fill="#852400"/>
<path d="M204.75 113.293H198.604L201.706 116.476L204.75 113.293Z" fill="#852400"/>
<path d="M201.706 110.11H195.559L198.661 113.293L201.706 110.11Z" fill="#852400"/>
<path d="M190.16 119.716L195.503 114.33L200.846 119.716L195.503 125.101L190.16 119.716Z" fill="#C6635D"/>
<path d="M192.515 119.905L195.465 116.931L198.416 119.905L195.465 122.879L192.515 119.905Z" fill="#EBE0C0"/>
<path d="M263.203 120.417L271.506 112.017L279.808 120.417L271.506 128.818L263.203 120.417Z" fill="#DBAC24"/>
<path d="M274.049 109.177H268.626L271.363 111.996L274.049 109.177Z" fill="#852400"/>
<path d="M271.512 111.945H266.089L268.825 114.764L271.512 111.945Z" fill="#852400"/>
<path d="M268.726 114.764H263.303L266.039 117.584L268.726 114.764Z" fill="#852400"/>
<path d="M266.039 117.684H260.616L263.353 120.503L266.039 117.684Z" fill="#852400"/>
<path d="M260.616 123.222H266.039L263.303 120.403L260.616 123.222Z" fill="#852400"/>
<path d="M268.776 131.78H274.199L271.462 128.961L268.776 131.78Z" fill="#852400"/>
<path d="M271.363 128.961H276.786L274.049 126.142L271.363 128.961Z" fill="#852400"/>
<path d="M266.188 128.961H271.611L268.875 126.142L266.188 128.961Z" fill="#852400"/>
<path d="M263.402 126.142H268.825L266.089 123.323L263.402 126.142Z" fill="#852400"/>
<path d="M274.149 126.142H279.572L276.835 123.323L274.149 126.142Z" fill="#852400"/>
<path d="M277.035 123.222H282.458L279.721 120.403L277.035 123.222Z" fill="#852400"/>
<path d="M282.259 117.785H276.835L279.572 120.604L282.259 117.785Z" fill="#852400"/>
<path d="M279.572 114.764H274.149L276.885 117.584L279.572 114.764Z" fill="#852400"/>
<path d="M276.885 111.945H271.462L274.199 114.764L276.885 111.945Z" fill="#852400"/>
<path d="M266.698 120.453L271.412 115.683L276.127 120.453L271.412 125.223L266.698 120.453Z" fill="#C6635D"/>
<path d="M268.776 120.62L271.379 117.986L273.982 120.62L271.379 123.255L268.776 120.62Z" fill="#EBE0C0"/>
<path d="M389.787 119.676L399.197 110.191L408.607 119.676L399.197 129.16L389.787 119.676Z" fill="#DBAC24"/>
<path d="M402.08 106.984H395.934L399.035 110.167L402.08 106.984Z" fill="#852400"/>
<path d="M399.204 110.11H393.058L396.159 113.293L399.204 110.11Z" fill="#852400"/>
<path d="M396.046 113.293H389.9L393.001 116.476L396.046 113.293Z" fill="#852400"/>
<path d="M393.001 116.59H386.855L389.957 119.773L393.001 116.59Z" fill="#852400"/>
<path d="M386.855 122.842H393.001L389.9 119.659L386.855 122.842Z" fill="#852400"/>
<path d="M396.103 132.504H402.249L399.148 129.321L396.103 132.504Z" fill="#852400"/>
<path d="M399.035 129.321H405.181L402.08 126.138L399.035 129.321Z" fill="#852400"/>
<path d="M393.171 129.321H399.317L396.215 126.138L393.171 129.321Z" fill="#852400"/>
<path d="M390.013 126.138H396.159L393.058 122.956L390.013 126.138Z" fill="#852400"/>
<path d="M402.192 126.138H408.339L405.237 122.956L402.192 126.138Z" fill="#852400"/>
<path d="M405.463 122.842H411.609L408.508 119.659L405.463 122.842Z" fill="#852400"/>
<path d="M411.383 116.703H405.237L408.339 119.886L411.383 116.703Z" fill="#852400"/>
<path d="M408.339 113.293H402.192L405.294 116.476L408.339 113.293Z" fill="#852400"/>
<path d="M405.294 110.11H399.148L402.249 113.293L405.294 110.11Z" fill="#852400"/>
<path d="M393.748 119.716L399.091 114.33L404.434 119.716L399.091 125.101L393.748 119.716Z" fill="#C6635D"/>
<path d="M396.103 119.905L399.053 116.931L402.004 119.905L399.053 122.879L396.103 119.905Z" fill="#EBE0C0"/>
<path d="M451.812 119.676L461.222 110.191L470.632 119.676L461.222 129.16L451.812 119.676Z" fill="#DBAC24"/>
<path d="M464.105 106.984H457.959L461.06 110.167L464.105 106.984Z" fill="#852400"/>
<path d="M461.229 110.11H455.083L458.184 113.293L461.229 110.11Z" fill="#852400"/>
<path d="M458.071 113.293H451.925L455.026 116.476L458.071 113.293Z" fill="#852400"/>
<path d="M455.026 116.59H448.88L451.982 119.773L455.026 116.59Z" fill="#852400"/>
<path d="M448.88 122.842H455.026L451.925 119.659L448.88 122.842Z" fill="#852400"/>
<path d="M458.128 132.504H464.274L461.173 129.321L458.128 132.504Z" fill="#852400"/>
<path d="M461.06 129.321H467.206L464.105 126.138L461.06 129.321Z" fill="#852400"/>
<path d="M455.196 129.321H461.342L458.24 126.138L455.196 129.321Z" fill="#852400"/>
<path d="M452.038 126.138H458.184L455.083 122.956L452.038 126.138Z" fill="#852400"/>
<path d="M464.217 126.138H470.364L467.262 122.956L464.217 126.138Z" fill="#852400"/>
<path d="M467.488 122.842H473.634L470.533 119.659L467.488 122.842Z" fill="#852400"/>
<path d="M473.408 116.703H467.262L470.364 119.886L473.408 116.703Z" fill="#852400"/>
<path d="M470.364 113.293H464.217L467.319 116.476L470.364 113.293Z" fill="#852400"/>
<path d="M467.319 110.11H461.173L464.274 113.293L467.319 110.11Z" fill="#852400"/>
<path d="M455.773 119.716L461.116 114.33L466.459 119.716L461.116 125.101L455.773 119.716Z" fill="#C6635D"/>
<path d="M458.128 119.905L461.078 116.931L464.029 119.905L461.078 122.879L458.128 119.905Z" fill="#EBE0C0"/>
</svg>
